{"title":"Letterman_The_Pretty_Reckless_20100825","uid":5791590,"size":292375175,"categoryP":"video","categoryS":"hd___tv_shows","magnet":"?xt=urn:btih:1081c3fbcbde5c59cc608360bf4115ebc94d01c6&amp;dn=Letterman_The_Pretty_Reckless_20100825&amp;tr=udp%3A%2F%2Ftracker.openbittorrent.com%3A80&amp;tr=udp%3A%2F%2Fopen.demonii.com%3A1337&amp;tr=udp%3A%2F%2Ftracker.coppersurfer.tk%3A6969&amp;tr=udp%3A%2F%2Fexodus.desync.com%3A6969","seeders":0,"leechers":1,"uploader":"thetorrentlord","files":9,"time":1282860343,"description":"Video compressed with Super and MP3 extracted with AoA Audio \n\nextractor @320kbps. Download the sample and check for \n\nyourself.                                                                                                    \nComplete name: Letterman_The_Pretty_Reckless_20100825.avi\nFormat                           : AVI\nFormat/Info                      : Audio Video Interleave\nFile size                        : 135 MiB\nDuration                         : 8mn 24s\nOverall bit rate                 : 2 242 Kbps\nMovie name                       : \n\nLetterman_The_Pretty_Reckless_20100825.mpg\nDirector                         : \n\ncreated.with.SUPER(C).v2010.bld.37\nWriting application              : SUPER(C)   \n\nVideo\nID                               : 0\nFormat                           : MPEG-4 Visual\nFormat profile                   : Simple@L3\nFormat settings, BVOP            : No\nFormat settings, QPel            : No\nFormat settings, GMC             : No warppoints\nFormat settings, Matrix          : Default (H.263)\nCodec ID                         : XVID\nCodec ID/Hint                    : XviD\nDuration                         : 4mn 12s\nBit rate                         : 4 376 Kbps\nWidth                            : 1 280 pixels\nHeight                           : 720 pixels\nDisplay aspect ratio             : 16:9\nFrame rate                       : 29.970 fps\nResolution                       : 8 bits\nColorimetry                      : 4:2:0\nScan type                        : Progressive\nBits/(Pixel*Frame)               : 0.158\nStream size                      : 132 MiB (98%)\nWriting library                  : XviD 1.1.2 (UTC 2006-11-01)\n\nAudio\nID                               : 1\nFormat                           : MPEG Audio\nFormat version                   : Version 2\nFormat profile                   : Layer 3\nMode                             : Joint stereo\nFormat_Settings_ModeExtension    : MS Stereo\nCodec ID                         : 55\nCodec ID/Hint                    : MP3\nDuration                         : 8mn 24s\nBit rate mode                    : Constant\nBit rate                         : 96.0 Kbps\nChannel(s)                       : 2 channels\nSampling rate                    : 22.05 KHz\nStream size                      : 2.89 MiB (2%)\nAlignment                        : Aligned on interleaves\nInterleave, duration             : 26 ms (0.78 video frame)\nWriting library                  : LAME3.98\n\n","torrent":{"xt":"urn:btih:1081c3fbcbde5c59cc608360bf4115ebc94d01c6","amp;dn":"Letterman_The_Pretty_Reckless_20100825","amp;tr":["udp%3A%2F%2Ftracker.openbittorrent.com%3A80","udp%3A%2F%2Fopen.demonii.com%3A1337","udp%3A%2F%2Ftracker.coppersurfer.tk%3A6969","udp%3A%2F%2Fexodus.desync.com%3A6969"],"infoHash":"1081c3fbcbde5c59cc608360bf4115ebc94d01c6","infoHashBuffer":{"type":"Buffer","data":[16,129,195,251,203,222,92,89,204,96,131,96,191,65,21,235,201,77,1,198]},"announce":[],"urlList":[]}}